<?xml version="1.0" standalone="no"?>
<!DOCTYPE svg PUBLIC "-//W3C//DTD SVG 20010904//EN"
 "http://www.w3.org/TR/2001/REC-SVG-20010904/DTD/svg10.dtd">
<svg version="1.0" xmlns="http://www.w3.org/2000/svg"
 width="100px" height="100px" viewBox="0 0 170.000000 150.000000"
 preserveAspectRatio="xMidYMid meet">
<metadata>
Created by potrace 1.10, written by Peter Selinger 2001-2011
</metadata>
<g transform="translate(0.000000,133.000000) scale(0.100000,-0.100000)"
fill="#ffffff" stroke="none">
<path d="M835 1149 c-343 -175 -371 -196 -400 -293 -24 -79 0 -159 66 -224
l32 -31 -41 -45 c-55 -60 -77 -131 -61 -205 22 -108 142 -194 246 -175 40 7
151 60 368 176 154 83 186 106 215 153 55 89 45 184 -27 265 l-45 50 35 40
c53 58 67 91 67 161 0 107 -64 190 -167 218 -22 6 -53 10 -69 9 -16 -1 -114
-45 -219 -99z m345 27 c44 -29 80 -99 80 -153 -1 -78 -48 -142 -140 -188 l-35
-18 37 -13 c20 -7 48 -20 62 -29 33 -22 76 -109 76 -154 -1 -51 -32 -114 -71
-144 -63 -47 -477 -259 -517 -264 -78 -10 -153 32 -193 109 -50 97 -2 201 121
263 l35 18 -42 14 c-82 28 -141 121 -130 205 3 23 18 59 34 81 31 44 71 68
362 219 171 88 176 90 229 85 33 -4 69 -15 92 -31z"/>
<path d="M934 1103 c-398 -209 -408 -215 -420 -278 -7 -42 9 -95 39 -123 12
-11 48 -32 80 -46 50 -22 57 -28 57 -53 0 -25 -9 -33 -69 -66 -75 -41 -101
-71 -108 -126 -9 -78 66 -157 142 -148 48 5 474 228 516 270 34 33 45 83 30
130 -15 45 -44 70 -114 101 -50 22 -57 29 -57 53 0 24 10 33 69 65 75 41 101
72 108 127 8 70 -62 151 -131 151 -19 0 -76 -23 -142 -57z m185 3 c29 -16 51
-53 51 -90 0 -34 -32 -70 -95 -105 -59 -33 -75 -54 -75 -99 0 -34 27 -62 93
-92 78 -37 99 -105 50 -160 -33 -35 -457 -260 -491 -260 -61 0 -110 59 -97
118 7 34 31 58 98 96 26 15 53 36 59 46 11 18 14 18 39 3 27 -16 30 -15 121
31 158 82 183 110 136 153 -26 23 -216 123 -234 123 -7 0 -22 -12 -33 -26 -17
-22 -21 -41 -21 -110 0 -77 -8 -101 -25 -74 -4 6 -32 24 -64 40 -41 20 -62 38
-70 59 -16 37 -7 82 22 109 33 31 458 252 485 252 13 0 35 -6 51 -14z m-226
-331 c64 -33 117 -62 117 -65 0 -4 -200 -110 -242 -128 -5 -2 -8 56 -8 128 0
72 4 130 8 128 5 -1 61 -30 125 -63z"/>
</g>
</svg>
